<?xml version="1.0" encoding="UTF-8" standalone="no"?>
<!DOCTYPE svg PUBLIC "-//W3C//DTD SVG 1.1//EN" "http://www.w3.org/Graphics/SVG/1.1/DTD/svg11.dtd">
<svg width="100%" height="100%" viewBox="0 0 1045 138" version="1.1" xmlns="http://www.w3.org/2000/svg" xmlns:xlink="http://www.w3.org/1999/xlink" xml:space="preserve" xmlns:serif="http://www.serif.com/" style="fill-rule:evenodd;clip-rule:evenodd;stroke-linejoin:round;stroke-miterlimit:2;">
    <g id="Artboard1" transform="matrix(1,0,0,0.693126,-1148.6,-16.5577)">
        <rect x="1148.6" y="23.888" width="1044.36" height="198.807" style="fill:none;"/>
        <clipPath id="_clip1">
            <rect x="1148.6" y="23.888" width="1044.36" height="198.807"/>
        </clipPath>
        <g clip-path="url(#_clip1)">
            <path d="M1175.68,106.834L1175.68,82.053L1148.6,82.053L1148.6,64.819L1175.68,64.819L1175.68,23.888L1187.22,23.888L1187.22,64.819L1202.55,64.819L1214.52,82.053L1187.22,82.053L1187.22,123.439L1175.68,106.834ZM1213.88,64.819L1241.39,64.819L1241.39,23.888L1252.93,23.888L1252.93,64.819L1280.02,64.819L1280.02,82.053L1252.93,82.053L1252.93,123.292L1252.83,123.292L1241.39,106.834L1241.39,82.053L1225.86,82.053L1213.88,64.819ZM1241.5,123.292L1241.39,123.292L1241.39,123.145L1241.5,123.292ZM1187.22,139.75L1187.22,164.223L1202.55,164.223L1214.31,181.15L1214.31,181.457L1187.22,181.457L1187.22,222.696L1175.68,222.696L1175.68,181.457L1148.6,181.457L1148.6,164.223L1175.68,164.223L1175.68,123.145L1187.22,139.75ZM1213.88,164.223L1214.31,164.223L1214.31,164.838L1213.88,164.223Z"/>
            <g transform="matrix(0.475824,0,0,0.738948,1160.77,-62.8229)">
                <path d="M169.446,386.385L169.446,330.578L112.522,330.578L112.522,307.255L169.446,307.255L169.446,251.865L193.699,251.865L193.699,307.255L250.624,307.255L250.624,330.578L193.699,330.578L193.699,386.385L169.446,386.385Z" style="fill:rgb(0,124,232);fill-rule:nonzero;"/>
            </g>
            <g transform="matrix(1,0,0,1.44274,934.564,-246.7)">
                <g transform="matrix(96,0,0,96,1232.45,286.955)">
                </g>
                <text x="364.229px" y="286.955px" style="font-family:'SportingGrotesque-Regular', 'Sporting Grotesque';font-size:96px;">open-med-calc</text>
            </g>
        </g>
    </g>
</svg>
